<?xml version="1.0" standalone="no"?>
<!DOCTYPE svg PUBLIC "-//W3C//DTD SVG 20010904//EN"
 "http://www.w3.org/TR/2001/REC-SVG-20010904/DTD/svg10.dtd">
<svg version="1.0" xmlns="http://www.w3.org/2000/svg"
 width="260.000000pt" height="260.000000pt" viewBox="0 0 260.000000 260.000000"
 preserveAspectRatio="xMidYMid meet">
<metadata>
Created by potrace 1.11, written by Peter Selinger 2001-2013
</metadata>
<g transform="translate(0.000000,260.000000) scale(0.100000,-0.100000)"
fill="#000000" stroke="none">
<path d="M1015 2413 c2 -60 7 -144 11 -188 3 -44 8 -100 10 -125 1 -25 5 -72
9 -105 3 -33 7 -85 10 -115 3 -30 7 -71 9 -90 3 -19 7 -66 11 -105 3 -38 8
-85 9 -102 2 -18 2 -33 0 -33 -2 0 -48 22 -101 49 -224 112 -787 331 -805 313
-5 -5 -10 -19 -11 -31 -1 -11 -6 -21 -11 -21 -5 0 -7 -3 -4 -6 3 -3 -12 -58
-34 -122 -22 -64 -41 -124 -43 -132 -5 -19 -61 -189 -70 -211 -6 -17 16 -29
80 -45 17 -4 35 -8 40 -10 44 -10 319 -77 355 -86 25 -5 54 -12 65 -14 11 -1
31 -6 45 -9 32 -9 92 -22 155 -34 28 -5 66 -13 85 -16 19 -4 44 -9 55 -10 11
-2 22 -4 25 -6 3 -1 12 -2 20 -3 29 -2 14 -25 -80 -123 -52 -55 -120 -128
-150 -163 -30 -35 -59 -68 -65 -74 -5 -6 -32 -38 -59 -71 -27 -33 -59 -70 -70
-82 -12 -11 -32 -36 -46 -54 -14 -18 -30 -37 -35 -43 -10 -11 -81 -98 -102
-127 -11 -13 6 -28 107 -99 66 -46 120 -88 120 -92 0 -4 5 -8 11 -8 5 0 42
-24 82 -53 40 -29 86 -63 104 -75 l32 -22 104 157 c136 205 206 324 359 606
23 42 46 77 52 77 5 0 6 -3 3 -7 -4 -3 -3 -11 2 -17 8 -10 203 -329 242 -396
8 -13 19 -30 24 -36 6 -7 33 -48 60 -93 28 -44 53 -81 58 -81 4 0 7 -5 7 -10
0 -9 35 -65 50 -80 3 -3 18 -23 33 -45 55 -80 57 -82 70 -65 11 14 30 29 93
70 45 31 314 221 336 239 l22 19 -64 78 c-36 44 -72 87 -80 98 -19 24 -81 95
-100 116 -8 9 -44 49 -80 90 -35 41 -126 138 -202 214 -75 77 -135 142 -133
145 3 2 24 6 47 7 24 2 57 6 73 9 17 2 44 7 60 9 42 7 75 13 113 20 17 3 47 8
65 11 17 3 40 8 49 11 9 3 25 6 35 8 16 4 141 33 168 40 6 2 24 6 40 11 17 4
68 18 115 32 47 13 92 26 100 28 8 2 31 10 51 19 20 8 40 12 44 8 7 -8 -4 47
-14 63 -3 6 -6 15 -7 20 -1 6 -17 53 -34 105 -18 52 -34 102 -36 110 -3 16
-52 164 -62 190 -6 17 -9 26 -11 38 -6 33 -19 33 -108 3 -77 -25 -190 -66
-268 -97 -11 -4 -22 -8 -25 -9 -31 -11 -216 -87 -232 -96 -10 -5 -24 -9 -32
-9 -7 0 -19 -7 -26 -15 -7 -8 -19 -15 -26 -15 -8 0 -60 -22 -116 -50 -56 -27
-103 -50 -105 -50 -2 0 -1 12 1 28 3 15 8 51 11 81 4 30 8 61 10 70 2 14 7 56
20 181 1 14 6 57 10 95 14 136 22 234 30 398 l7 117 -286 0 -285 0 4 -107z"/>
</g>
</svg>
